# xmcd
#
# Track frame offsets: 
#        150
#        17625
#        38413
#        58948
#        77556
#        96157
#        113616
#
# Disc length: 1790 seconds
#
# Revision: 0
# Processed by: cddbd v1.5.2PL0 Copyright (c) Steve Scherf et al.
# Submitted via: ExactAudioCopy v0.99pb3
#
DISCID=4806fc07
DTITLE=theD.A.Y - souLight
DYEAR=2008
DGENRE=Ballad
TTITLE0=추억...그 사람
TTITLE1=그대라는
TTITLE2=사랑하는 사람아
TTITLE3=Meeting Again (이용호 Solo) feat. 문지혜
TTITLE4=Propose (DL Solo)
TTITLE5=추억...그 사람 (Instrumental)
TTITLE6=그대라는 (Instrumental)
EXTD=
EXTT0=
EXTT1=
EXTT2=
EXTT3=
EXTT4=
EXTT5=
EXTT6=
PLAYORDER=
